<?xml version="1.0" encoding="UTF-8"?><svg id="b" xmlns="http://www.w3.org/2000/svg" width="401.6" height="44.24" viewBox="0 0 401.6 44.24"><g id="c"><path d="M190.74,23.59c2.76-2.32,6.21-4.83,10.4-7.16,2.37-1.31,4.64-2.38,6.75-3.25,9.25.08,19.28.17,28.53.25-.1.89-.26,2.1-.53,3.52-.21,1.09-.46,2.39-.95,3.87-.82,2.51-1.35,4.27-2.84,5.4-.53.4-1.85,1.26-4.09,1.29-6.85.08-13.96.2-14.48.19-14.69-.27-14.94-.27-14.94-.27-.88,0-3.02.04-5.14-1.24-1.36-.82-2.22-1.89-2.71-2.62Z"/><path d="M55.27,23.59c2.36-2,5.45-4.29,9.32-6.39,3.45-1.87,6.67-3.14,9.38-4.01,9.25.08,12.67.17,21.92.25-.1.89-.26,2.1-.53,3.52-.21,1.09-.46,2.39-.95,3.87-.82,2.51-1.35,4.27-2.84,5.4-.53.4-1.85,1.26-4.09,1.29-6.85.08-8.91.2-9.44.19-14.69-.27-14.94-.27-14.94-.27-.88,0-3.02.04-5.14-1.24-1.36-.82-2.22-1.89-2.71-2.62Z"/><path d="M259.8,0c-.32,2.55-.8,6.07-1.48,10.26-.29,1.77-1.17,7.18-2.14,11.52-1.06,4.77-2.97,11.71-6.67,20.23h13.12c.85-1.68,2.06-4.26,3.26-7.5,1.18-3.18,2.7-7.98,5.11-23.25C271.45,8.43,272.03,4.59,272.64,0h-12.84Z"/><path d="M150.65,0c-.32,2.55-.8,6.07-1.48,10.26-.29,1.77-1.17,7.18-2.14,11.52-1.06,4.77-2.97,11.71-6.67,20.23h13.12c.85-1.68,2.06-4.26,3.26-7.5,1.18-3.18,2.7-7.98,5.11-23.25C162.3,8.43,162.88,4.59,163.49,0h-12.84Z"/><path d="M275.75,0c-.32,2.55-.8,6.07-1.48,10.26-.29,1.77-1.17,7.18-2.14,11.52-1.06,4.77-2.97,11.71-6.67,20.23h13.12c.85-1.68,2.06-4.26,3.26-7.5,1.18-3.18,2.7-7.98,5.11-23.25C287.4,8.43,287.98,4.59,288.59,0h-12.84Z"/><path d="M291.7,0c-.32,2.55-.8,6.07-1.48,10.26-.29,1.77-1.17,7.18-2.14,11.52-1.06,4.77-2.97,11.71-6.67,20.23h13.12c.85-1.68,2.06-4.26,3.26-7.5,1.18-3.18,2.7-7.98,5.11-23.25C303.34,8.43,303.92,4.59,304.54,0h-12.84Z"/><path d="M302.41,29.57c-1.11,3.61-2.59,7.79-4.61,12.44h13.12c.85-1.68,2.06-4.26,3.26-7.5.43-1.15.9-2.52,1.44-4.52"/><path d="M118.82,0c-.32,2.55-.8,6.07-1.48,10.26-.29,1.77-1.17,7.18-2.14,11.52-1.06,4.77-2.97,11.71-6.67,20.23h13.12c.85-1.68,2.06-4.26,3.26-7.5,1.18-3.18,2.7-7.98,5.11-23.25C130.47,8.43,131.05,4.59,131.66,0h-12.84Z"/><path d="M100.81,0c-.37,2.55-.4,6.07-1.2,10.26-.34,1.77-.94,9.26-2.07,13.6-1.24,4.77-.08,9.63-4.41,18.15h11.96c.99-1.68,2.42-4.26,3.82-7.5,1.38-3.18,3.16-7.98,5.98-23.25C115.42,8.43,116.1,4.59,116.82,0h-16Z"/><path d="M134.77,0c-.32,2.55-.8,6.07-1.48,10.26-.29,1.77-1.17,7.18-2.14,11.52-1.06,4.77-2.97,11.71-6.67,20.23h13.12c.85-1.68,2.06-4.26,3.26-7.5,1.18-3.18,2.7-7.98,5.11-23.25C146.42,8.43,147,4.59,147.61,0h-12.84Z"/><path d="M149.76,5.83c-.32,2.55-.8,6.07-1.48,10.26-.29,1.77-.21,1.34-1.17,5.69-1.06,4.77-2.97,11.71-6.67,20.23h13.12c.85-1.68,2.06-4.26,3.26-7.5,1.18-3.18,1.73-2.15,4.14-17.42.45-2.83,1.03-6.67,1.64-11.26h-12.84Z"/><path d="M258.84,5.83c-.32,2.55-.8,6.07-1.48,10.26-.29,1.77-.21,1.34-1.17,5.69-1.06,4.77-2.97,11.71-6.67,20.23h13.12c.85-1.68,2.06-4.26,3.26-7.5,1.18-3.18,1.73-2.15,4.14-17.42.45-2.83,1.03-6.67,1.64-11.26h-12.84Z"/><path d="M166.99,0c1.02,9.53,3.13,17.05,4.94,22.26,2.66,7.66,5.06,11.39,7.36,14.16,2.11,2.55,4.22,4.38,5.78,5.59h60.18c.57-.46,1.37-1.19,2.14-2.24,1.09-1.48,1.58-2.85,1.85-3.67.84-2.51,2.49-8.27,4.39-15.99h-14.81c-.32,2.06-.8,3.73-1.21,4.94-1.08,3.14-1.98,3.96-2.7,4.38,0,0-.54.31-1.21.47-3.15.71-33.31.04-39.22-.09-.56-.12-1.36-.34-2.27-.75-3.21-1.44-5.5-4.25-7.82-9.39C181.08,12.34,179.82,4.93,179.29,0h-12.3Z"/><path d="M130.29,41.61c2.14-2.84,4.49-5.51,6.98-7.92,2.29-2.21,4.73-4.15,9.59-8.01,1.29-1.02,2.55-1.97,3.88-2.92.87-.62,1.31-.93,1.57-1.08,4.46-2.93,9.05-6.06,13.64-9.28l1.3-.91.26,1.57c.54,3.24,1.37,6.44,2.47,9.52.82,2.31,1.81,4.59,2.93,6.77l.31.6-.44.51c-1.79,2.08-3.59,4.16-5.41,6.25-1.74,2-3.48,3.99-5.22,5.97l-.3.34-32.78.22,1.22-1.62Z"/><path d="M166.53,13.23c.47,2.82,1.24,6.12,2.52,9.69.93,2.6,1.96,4.9,2.98,6.89-1.79,2.08-3.59,4.16-5.4,6.24-1.74,2-3.48,3.99-5.22,5.96-10.1.07-20.21.14-30.31.2,2.59-3.44,5.03-6.01,6.87-7.8,2.25-2.18,4.67-4.1,9.52-7.94.86-.68,2.15-1.68,3.84-2.88.95-.68,1.52-1.05,1.52-1.05,3.03-1.99,7.76-5.15,13.69-9.32M167.98,9.77l-2.6,1.82c-4.59,3.23-9.18,6.35-13.64,9.28h0c-.34.21-.81.54-1.58,1.09-1.35.96-2.63,1.92-3.92,2.94-4.89,3.88-7.34,5.83-9.67,8.07-2.53,2.45-4.91,5.15-7.08,8.03l-2.43,3.23,4.04-.03,15.16-.1,15.16-.1h.9s.59-.68.59-.68c1.74-1.98,3.48-3.97,5.22-5.97,1.82-2.09,3.62-4.17,5.41-6.25l.88-1.02-.61-1.2c-1.1-2.14-2.07-4.38-2.88-6.65-1.08-3.03-1.89-6.17-2.43-9.35l-.52-3.13h0Z" fill="#fff"/><path d="M183.39,6.89c.38,2.07.96,4.47,1.86,7.08.92,2.65,1.97,4.92,2.98,6.8,1.75-1.5,3.83-3.06,6.24-4.56,4.91-3.05,9.59-4.82,13.32-5.87,13.38.03,26.77.06,40.15.09C246.2,6.96,244.47,3.48,242.73,0h-36.7c-3.24.51-6.88,1.27-10.81,2.42-4.54,1.34-8.5,2.92-11.83,4.47Z"/><path d="M358.5,11.21c-13.38.03-29.51.06-42.89.09,2.56-3.66,4.2-6.09,7.33-11.31,12.23,0-3.01,0,9.22,0"/><path d="M245.89,0c1.77,3.48,3.54,6.96,5.31,10.43h4.01C255.74,6.96,256.26,3.48,256.79,0h-10.9Z"/><path d="M319.21,0c-2.45,3.93-4.73,7.65-7.29,11.26-1.34,0-3.88,0-5.22,0C307.54,6.46,307.63,3.8,308.31,0c3.63,0,7.27,0,10.9,0Z"/><path d="M113.11,20.12h-14.81c-.2,1.16-.55,2.88-1.21,4.94-.28.88-.43,1.33-.65,1.73-.37.67-1.7,2.64-6.52,3.11l-.32,12.11h15.13"/><path d="M43.46,26.03c6.76-4.91,12.62-8.11,15.94-9.82,5.07-2.61,9.64-4.5,13.32-5.87L70.95,0c-3.24.51-6.88,1.27-10.81,2.42-4.54,1.34-8.5,2.92-11.83,4.47-4.09,1.6-9.52,3.92-15.74,7.09-6.35,3.24-10.52,5.85-14.81,8.56,0,0-8.61,5.45-15.7,13.62-.73.84-1.79,2.25-2.02,4.19-.08.7-.03,1.28.02,1.66h26.27c1.21-1.54,2.95-3.63,5.22-5.96,4.44-4.57,8.3-7.4,11.91-10.02Z"/><path d="M99.62,10.41c3.84,0,7.69.02,11.53.03C109.41,6.96,107.67,3.48,105.93,0h-5.12l-1.2,10.41Z"/><path d="M105.38,0c1.77,3.48,3.54,6.96,5.31,10.43h4.01C115.22,6.96,115.75,3.48,116.28,0h-10.9Z"/><path d="M383.66,42.09h-26.27c-1.74-1.97-3.48-3.96-5.22-5.96-1.81-2.09-3.62-4.17-5.4-6.24,1.48-1.6,3.18-3.71,4.77-6.36,1.7-2.82,2.82-5.46,3.56-7.62,1.63.85,3.34,1.8,5.1,2.87,2.1,1.28,4.02,2.58,5.76,3.84,0,0,9.04,5.94,15.7,13.62.73.84,1.79,2.25,2.02,4.19.08.7.03,1.28-.02,1.66Z"/><path d="M17.95,42.09h26.27c1.74-1.97,3.48-3.96,5.22-5.96,1.81-2.09,3.62-4.17,5.4-6.24-1.48-1.6-3.18-3.71-4.77-6.36-1.7-2.82-2.82-5.46-3.56-7.62-1.63.85-3.34,1.8-5.1,2.87-2.1,1.28-4.02,2.58-5.76,3.84,0,0-9.04,5.94-15.7,13.62-.73.84-1.79,2.25-2.02,4.19-.08.7-.03,1.28.02,1.66Z"/><path d="M302.73,27.52c6.85.08,20.07.2,20.6.19,14.69-.27,14.94-.27,14.94-.27.88,0,3.02.04,5.14-1.24,1.36-.82,2.22-1.89,2.71-2.62-2.36-2-5.45-4.29-9.32-6.39-3.45-1.87-6.67-3.14-9.38-4.01-9.25.08-11.84.17-21.09.25"/><path d="M358.14,26.03c-6.76-4.91-12.62-8.11-15.94-9.82-5.07-2.61-9.64-4.5-13.32-5.87L330.65,0c3.24.51,6.88,1.27,10.81,2.42,4.54,1.34,8.5,2.92,11.83,4.47,4.09,1.6,9.52,3.92,15.74,7.09,6.35,3.24,10.52,5.85,14.81,8.56,0,0,8.61,5.45,15.7,13.62.73.84,1.79,2.25,2.02,4.19.08.7.03,1.28-.02,1.66h-26.27c-1.21-1.54-2.95-3.63-5.22-5.96-4.44-4.57-8.3-7.4-11.91-10.02Z"/></g></svg>