<?xml version="1.0" encoding="UTF-8"?><svg id="b" xmlns="http://www.w3.org/2000/svg" width="401.6" height="42.21" viewBox="0 0 401.6 42.21"><g id="c"><path d="M129.69,27.53c2.96.03,8.05.07,13.13.09.03.01.06.01.08,0,.01-.02.01-.05.02-.08.97-.78,2.07-1.64,3.32-2.64.02-.02.03-.03.05-.04h.01s.05-.05.08-.07c1.24-.98,2.48-1.9,3.78-2.83.76-.55,1.24-.88,1.58-1.09,3.15-2.07,6.36-4.24,9.6-6.48.02,0,.02-.01.03-.02h.01c.06-.04.12-.09.18-.13.06-.36.11-.71.16-1.06h-.18c-4.1.04-8.45.08-12.82.11-.02.01-.04.01-.06,0-1,.02-2.01.02-3.02.04-4.39.03-8.75.07-12.88.11h-.03l-3.58,14.08c.17,0,.35,0,.54.01Z"/><path d="M149,11.26v.04h.01l12.83-.04h3.93c-.87-3.54-1.72-7.49-2.05-11.26h-13.08c-.2,1.59-.46,3.56-.8,5.83h-.03c.26-1.77.53-3.71.82-5.83h-15.78c-.32,2.54-.8,6.07-1.48,10.26-.05.27-.1.62-.17,1.04l12.76-.03h3.03ZM149.24,9.7c-.03.21-.06.42-.09.64,0,.02,0,.04,0,.06v.04c-.02.08-.03.16-.04.23,0,.05-.01.09-.02.14,0,.01,0,.03-.01.04-.01.07-.02.15-.04.23.07-.44.14-.9.21-1.38Z"/><path d="M190.74,23.59c.49.73,1.35,1.79,2.71,2.62,2.11,1.27,4.25,1.24,5.14,1.24,0,0,.25,0,14.94.27.53,0,7.64-.11,14.48-.19,2.24-.03,3.56-.89,4.09-1.29,1.48-1.13,2.02-2.89,2.84-5.4.48-1.49.74-2.78.95-3.87.28-1.42.44-2.63.53-3.52-9.25-.08-19.28-.17-28.53-.25-2.11.87-4.38,1.94-6.75,3.25-4.19,2.32-7.64,4.84-10.4,7.16Z"/><path d="M94.42,20.83c.48-1.49.74-2.78.95-3.87.28-1.42.44-2.63.53-3.52-9.25-.08-12.67-.17-21.92-.25-2.72.87-5.94,2.14-9.38,4.01-3.87,2.1-6.96,4.39-9.32,6.39.49.73,1.35,1.79,2.71,2.62,2.11,1.27,4.25,1.24,5.14,1.24,0,0,.25,0,14.94.27.53,0,2.59-.11,9.44-.19,2.24-.03,3.56-.89,4.09-1.29,1.48-1.13,2.02-2.89,2.84-5.4Z"/><path d="M288.12,29.57h0s-18.14,0-18.14,0c-1.11,3.61-2.59,7.79-4.61,12.44h29.16c.85-1.68,2.06-4.26,3.26-7.5.46-1.23.96-2.71,1.55-4.94h-11.22Z"/><path d="M290.04,11.31l12.85-.05c.45-2.83,1.03-6.67,1.64-11.26h-28.88c-.32,2.55-.8,6.07-1.48,10.26-.04.27-.1.63-.17,1.05l16.05-.04s0,.03,0,.04Z"/><path d="M297.79,42.01h13.12c.85-1.68,2.06-4.26,3.26-7.5.43-1.15.9-2.52,1.44-4.52l-13.21-.42c-1.11,3.61-2.59,7.79-4.61,12.44Z"/><path d="M130.02,11.26c.45-2.83,1.03-6.67,1.64-11.26h-12.84c-.32,2.55-.8,6.07-1.48,10.26-.29,1.77-1.17,7.18-2.14,11.52-1.06,4.77-2.97,11.71-6.67,20.23h13.12c.85-1.68,2.06-4.26,3.26-7.5,1.18-3.18,2.7-7.98,5.11-23.25Z"/><path d="M114.9,11.26c.52-2.83,1.2-6.67,1.92-11.26h-16c-.07.5-.13,1.05-.19,1.62l-.96,8.35c-.02.1-.03.19-.05.29-.25,1.32-.65,5.85-1.31,9.86h0c-.2,1.16-.55,2.88-1.21,4.94-.28.88-.43,1.33-.65,1.73-.37.67-1.7,2.64-6.52,3.11l-.32,12.11h15.5c.99-1.68,2.42-4.26,3.82-7.5,1.38-3.18,3.16-7.98,5.98-23.25Z"/><path d="M140.42,29.57h-11.24c-1.1,3.61-2.59,7.79-4.61,12.44h4.17l.75-1c2.17-2.88,4.55-5.59,7.08-8.03,1.15-1.12,2.34-2.17,3.85-3.41Z"/><path d="M270.04,17.09s0-.01,0-.02c.3-1.75.62-3.68.96-5.82.45-2.83,1.03-6.67,1.64-11.26h-12.84c-.2,1.59-.46,3.56-.8,5.83h-.17c-.27,2.12-.64,4.92-1.16,8.21-.41,2.32-.94,5.2-1.5,7.73-1.06,4.77-2.97,11.71-6.67,20.23h13.12c.85-1.68,2.06-4.26,3.26-7.5,1.18-3.18,1.73-2.15,4.14-17.42Z"/><path d="M238.81,20.12c-.32,2.06-.8,3.73-1.21,4.94-1.08,3.14-1.98,3.96-2.7,4.38,0,0-.54.31-1.21.47-3.15.71-33.31.04-39.22-.09-.56-.12-1.36-.34-2.27-.75-3.21-1.44-5.5-4.25-7.82-9.39-3.31-7.32-4.57-14.74-5.09-19.67h-12.3c1.02,9.53,3.13,17.05,4.94,22.26,2.66,7.66,5.06,11.39,7.36,14.16,2.11,2.55,4.22,4.38,5.78,5.59h60.18c.57-.46,1.37-1.19,2.14-2.24,1.09-1.48,1.58-2.85,1.85-3.67.84-2.51,2.49-8.27,4.39-15.99h-14.81Z"/><path d="M166.53,13.22c-1.94,1.36-3.75,2.62-5.42,3.76-.05.04-.11.08-.16.11-.03.02-.06.04-.08.06-3.32,2.27-6.05,4.08-8.04,5.39,0,0-.56.37-1.51,1.05-1.69,1.2-2.98,2.2-3.84,2.88-.52.41-1.01.8-1.48,1.17h-.46c-.04.15-.09.31-.13.47-1.24.99-2.29,1.83-3.22,2.59-.04.03-.07.06-.11.08h0c-1.66,1.37-2.91,2.46-4.12,3.63-1.8,1.75-4.18,4.27-6.72,7.6-.05.06-.1.13-.15.2,10.1-.07,20.21-.13,30.31-.2,1.74-1.98,3.48-3.96,5.22-5.96,1.82-2.09,3.62-4.17,5.4-6.24-1.02-1.99-2.05-4.3-2.98-6.9-1.27-3.57-2.04-6.86-2.51-9.69Z"/><path d="M188.23,20.77c1.75-1.5,3.83-3.06,6.24-4.56,4.91-3.05,9.59-4.82,13.32-5.87,13.38.03,26.77.06,40.15.09-1.74-3.48-3.48-6.96-5.22-10.43h-36.7c-3.24.51-6.88,1.27-10.81,2.42-4.54,1.34-8.5,2.92-11.83,4.47.38,2.07.96,4.47,1.86,7.08.92,2.65,1.97,4.92,2.98,6.8Z"/><path d="M255.21,10.43c.53-3.48,1.06-6.96,1.58-10.43h-10.9c1.77,3.48,3.54,6.96,5.31,10.43h4.01Z"/><path d="M319.21,0h-10.9c-.68,3.8-.77,6.46-1.61,11.26h5.22c2.56-3.61,4.85-7.33,7.29-11.26Z"/><path d="M49.24,22.08c4.26-2.74,7.83-4.67,10.16-5.87,5.07-2.61,9.64-4.5,13.32-5.87l-1.77-10.34c-3.24.51-6.88,1.27-10.81,2.42-4.54,1.34-8.5,2.92-11.83,4.47-4.09,1.6-9.52,3.92-15.74,7.09-6.35,3.24-10.52,5.85-14.81,8.56,0,0-8.61,5.45-15.7,13.62-.73.84-1.79,2.25-2.02,4.19-.08.7-.03,1.28.02,1.66h17.88s0,.05,0,.07h26.27c1.74-1.97,3.48-3.96,5.22-5.96,1.81-2.09,3.62-4.17,5.4-6.24-1.48-1.6-3.18-3.71-4.77-6.36-.3-.49-.56-.97-.82-1.45Z"/><path d="M327.41,13.19c-9.25.08-44.16.17-53.4.25l-3.59,14.08c6.85.08,52.38.2,52.91.19,14.69-.27,14.94-.27,14.94-.27.88,0,3.02.04,5.14-1.24,1.36-.82,2.22-1.89,2.71-2.62-2.36-2-5.45-4.29-9.32-6.39-3.45-1.87-6.67-3.14-9.38-4.01Z"/><path d="M401.56,40.35c-.23-1.94-1.29-3.36-2.02-4.19-7.09-8.17-15.7-13.62-15.7-13.62-4.29-2.7-8.46-5.31-14.81-8.56-6.22-3.18-11.66-5.49-15.74-7.09-3.33-1.55-7.29-3.14-11.83-4.47-2.92-.86-5.69-1.5-8.26-1.98l-1.03-.44h-4.12s-.22,0-.99,0h-4.12c-3.14,5.22-4.78,7.65-7.33,11.31,4.95-.01,10.28-.02,15.7-.03,3.19,1.26,6.88,2.87,10.89,4.93,2.32,1.19,5.9,3.13,10.16,5.87-.26.48-.52.96-.82,1.45-1.6,2.65-3.29,4.75-4.77,6.36,1.79,2.08,3.59,4.16,5.4,6.24,1.74,2,3.48,3.99,5.22,5.96h26.27s0-.05,0-.07h17.88c.05-.37.1-.96.02-1.66Z"/></g></svg>