<?xml version="1.0" encoding="UTF-8"?><svg id="b" xmlns="http://www.w3.org/2000/svg" width="292.72" height="338" viewBox="0 0 292.72 338"><g id="c"><polygon id="d" points="0 84.5 146.36 0 292.72 84.5 292.72 253.5 146.36 338 0 253.5 0 84.5"/><path id="e" d="M211.72,163.63l17.63-11.2-4.56-15.23-20.92.35c-3.83-6.99-8.93-13.29-15.1-18.53l4.56-20.44-13.99-7.54-14.58,15.08c-7.92-2.32-15.96-3.07-23.75-2.42l-11.25-17.71-15.23,4.56.35,21c-6.97,3.82-13.25,8.89-18.48,15.04l-20.48-4.57-7.54,13.99,15.09,14.59c-2.33,7.95-3.09,16.01-2.44,23.83l-17.67,11.22,4.56,15.22,20.96-.35c3.83,7,8.93,13.3,15.12,18.54l-4.55,20.38,13.99,7.54,14.53-15.03c7.91,2.32,15.92,3.07,23.7,2.43l11.19,17.62,15.23-4.56-.35-20.85c7.03-3.83,13.36-8.94,18.62-15.14l20.36,4.55,7.54-13.99-15-14.5c2.34-7.97,3.1-16.04,2.45-23.88ZM145.55,188.14c-10.57-.45-18.78-9.38-18.33-19.95.45-10.57,9.38-18.78,19.95-18.33,10.57.45,18.78,9.38,18.33,19.95-.45,10.57-9.38,18.78-19.95,18.33Z" fill="#fff"/></g></svg>